<?xml version="1.0" encoding="UTF-8" standalone="no"?>
<!-- Created with Inkscape (http://www.inkscape.org/) -->

<svg
   version="1.1"
   id="svg296"
   width="136.12"
   height="142.67999"
   viewBox="0 0 136.12 142.67999"
   sodipodi:docname="cohost.svg"
   inkscape:version="1.2.2 (b0a8486541, 2022-12-01)"
   inkscape:export-filename="cohost.svg"
   inkscape:export-xdpi="96"
   inkscape:export-ydpi="96"
   xmlns:inkscape="http://www.inkscape.org/namespaces/inkscape"
   xmlns:sodipodi="http://sodipodi.sourceforge.net/DTD/sodipodi-0.dtd"
   xmlns="http://www.w3.org/2000/svg"
   xmlns:svg="http://www.w3.org/2000/svg">
  <defs
     id="defs300" />
  <sodipodi:namedview
     id="namedview298"
     pagecolor="#ecad62"
     bordercolor="#000000"
     borderopacity="0.25"
     inkscape:showpageshadow="2"
     inkscape:pageopacity="0"
     inkscape:pagecheckerboard="0"
     inkscape:deskcolor="#d1d1d1"
     showgrid="false"
     inkscape:zoom="8.4145327"
     inkscape:cx="47.358542"
     inkscape:cy="71.958839"
     inkscape:window-width="2560"
     inkscape:window-height="1412"
     inkscape:window-x="2560"
     inkscape:window-y="0"
     inkscape:window-maximized="1"
     inkscape:current-layer="g302" />
  <g
     inkscape:groupmode="layer"
     inkscape:label="Image"
     id="g302">
    <rect
       style="fill:#ecad62;fill-opacity:1"
       id="rect165"
       width="136.21458"
       height="142.68178"
       x="0.023559501"
       y="0.082703061" />
    <g
       id="g306"
       transform="translate(-21.762624,-0.67507977)">
      <path
         style="fill:#72274c;stroke-width:0.32"
         d="m 98.574826,139.69786 c -0.210948,-0.25418 -0.578461,-1.39376 -0.816695,-2.53241 -0.702336,-3.3568 -2.665603,-6.129 -4.113405,-5.80826 -0.376601,0.0834 -1.641603,0.36462 -2.81112,0.62485 -20.774352,4.6226 -41.587654,0.80518 -52.800995,-9.68435 l -2.095235,-1.95999 -1.460426,0.92617 c -1.661379,1.05362 -3.203694,3.84382 -3.576342,6.46995 -0.238036,1.6775 -0.760929,2.28467 -1.834984,2.13073 -2.960748,-0.42432 -0.369994,-8.47777 3.597566,-11.18316 l 1.22985,-0.83861 -0.999546,-1.56139 C 25.666098,104.99142 23.89031,89.945495 28.459935,78.716619 32.655149,68.407771 42.393024,58.331231 54.942218,51.313324 57.560592,49.849046 57.52296,50.029174 55.814006,47.140122 39.664138,19.838144 40.486042,4.3162061 58.08,4.3459952 76.469171,4.3771312 86.270173,15.418368 85.292499,35.00201 l -0.22176,4.442013 0.904631,-0.201514 c 2.55631,-0.569433 12.257926,-2.121372 13.26463,-2.1219 2.57618,-0.0013 3.09029,-0.280948 4.34122,-2.360867 9.55929,-15.894245 22.48874,-20.060325 36.73632,-11.83704 11.78729,6.803282 13.66363,14.936316 5.40013,23.406978 l -2.63108,2.69704 1.84988,2.28664 c 8.23488,10.179084 11.37133,25.72954 7.55038,37.434675 -2.22913,6.828758 -7.1809,14.362895 -13.23438,20.136115 l -1.93368,1.84416 1.55577,1.55577 c 2.60963,2.60962 4.19865,6.43883 3.06305,7.38129 -1.00394,0.8332 -1.88324,0.25398 -3.13537,-2.06538 -1.83657,-3.40193 -4.37767,-5.33418 -5.22083,-3.96992 -0.3084,0.49901 -6.19848,4.34044 -9.46647,6.17391 l -2.76506,1.5513 0.7969,1.74068 c 1.72489,3.76765 1.73961,6.87384 0.0335,7.08021 -1.04751,0.12671 -1.34188,-0.30863 -1.98833,-2.94053 -1.02826,-4.18639 -1.50966,-4.66705 -3.62,-3.61447 -2.58016,1.2869 -9.61824,3.95706 -14.199,5.38691 l -4.347,1.35689 0.964128,1.42857 c 1.616422,2.39508 2.642382,7.08594 1.745872,7.98245 -0.5254,0.52541 -1.695386,0.48311 -2.161174,-0.0781 z M 63.861584,46.754557 c 5.131555,-2.296224 8.9108,-3.66647 17.29801,-6.271763 0.471702,-0.146525 0.691542,-1.483066 0.950256,-5.777241 C 83.114246,18.03449 75.084762,8.2847322 59.68,7.4702324 46.204771,6.7577531 43.868474,15.203375 52.407507,33.759998 c 1.963901,4.267855 7.525754,14.559999 7.868192,14.559999 0.04811,0 1.661757,-0.704448 3.585885,-1.56544 z m 79.552476,-2.524605 c 6.20256,-6.49215 5.54396,-11.70133 -2.15206,-17.021584 -13.05479,-9.024763 -24.7862,-6.480962 -33.87036,7.344334 -0.6334,0.963984 -1.15164,1.843814 -1.15164,1.955174 0,0.11136 2.34,0.284089 5.2,0.383843 10.14932,0.35399 18.82676,2.939235 26.22477,7.813068 1.1945,0.786938 2.25308,1.562288 2.35241,1.723002 0.40078,0.648493 1.12549,0.179593 3.39688,-2.197837 z"
         id="path310" />
      <path
         style="fill:#1c1616;stroke-width:0.32"
         d="m 98.712467,139.5078 c -0.125385,-0.20288 -0.495776,-1.44052 -0.823088,-2.75032 -1.08832,-4.3551 -2.827401,-5.95093 -7.049091,-6.46845 -3.646518,-0.44701 -2.928134,-3.13654 0.755299,-2.82773 5.08353,0.42618 8.874513,4.67257 8.996193,10.07686 0.0483,2.14458 -1.055943,3.30188 -1.879313,1.96964 z m 22.491613,-9.82781 c -0.27231,-0.308 -0.59148,-1.28212 -0.70927,-2.16471 -0.51307,-3.84449 -3.26692,-6.65028 -6.9344,-7.06521 -3.58785,-0.40592 -3.44023,-3.23064 0.15287,-2.92514 5.34972,0.45486 8.46283,3.82419 9.61072,10.40173 0.29473,1.68881 -1.13298,2.86963 -2.11992,1.75333 z m -93.005524,-0.64796 c -1.829387,-3.41824 4.555866,-12.43523 6.979188,-9.85573 0.688509,0.73289 0.683722,1.46369 -0.0096,1.46369 -1.494912,0 -3.390743,2.76075 -4.271385,6.22008 -0.707233,2.77814 -1.872009,3.71574 -2.698216,2.17196 z m 111.897024,-9.52312 c -0.0941,-0.0941 -0.65011,-1.11486 -1.23561,-2.26837 -1.90564,-3.75443 -4.40158,-5.06587 -8.47799,-4.45457 -2.31146,0.34662 -3.6214,-1.93059 -1.56115,-2.7139 1.27049,-0.48304 5.66081,-0.37901 6.96276,0.16498 2.85481,1.19281 7.16226,7.18508 6.30984,8.77785 -0.3256,0.60839 -1.57462,0.91723 -1.99785,0.49401 z M 53.146349,107.02036 c -0.871191,-0.37805 -1.316381,-0.40108 -2.188647,-0.11321 -2.605724,0.85997 -5.899107,-1.16178 -5.157632,-3.16618 0.394032,-1.06518 1.162112,-1.19887 2.253207,-0.39219 0.702329,0.51926 1.221629,0.66246 1.896899,0.5231 0.511405,-0.10554 1.354211,-0.27911 1.872906,-0.38572 0.686668,-0.14114 1.217267,0.001 1.951523,0.52423 0.968918,0.68993 1.051523,0.69753 2.107773,0.19384 1.415612,-0.67506 1.815388,-0.6602 2.49687,0.0928 1.688218,1.86546 -2.357642,3.971 -5.232899,2.7233 z m 12.657574,-3.79222 c -4.321577,-1.59963 -5.484061,-6.843836 -2.298653,-10.369705 3.65001,-4.040124 10.4253,-1.218438 10.409466,4.3352 -0.01245,4.367475 -4.199142,7.482405 -8.110813,6.034505 z M 39.52,98.429478 c -5.623674,-2.492361 -4.532323,-11.383305 1.468054,-11.959868 4.376743,-0.420547 7.237229,2.340643 6.939328,6.698448 -0.285504,4.176415 -4.66768,6.918822 -8.407382,5.26142 z M 96.8,68.159995 c -0.320234,-1.008963 0.126387,-1.900697 1.061328,-2.119081 8.815632,-2.059146 24.655382,-8.265404 33.350582,-13.067263 2.90265,-1.602963 4.60346,-2.67648 9.70975,-6.128579 9.15973,-6.192416 8.98317,-14.366802 -0.44166,-20.448352 -14.4014,-9.292773 -26.74294,-4.889487 -35.8685,12.797367 -3.53466,6.85078 -5.998716,13.371746 -7.660415,20.272846 -0.576087,2.392509 -0.8616,3.051811 -1.434672,3.312922 -0.883719,0.402649 -2.079635,-0.146983 -2.069488,-0.951117 0.04937,-3.911427 6.645915,-22.126651 9.054065,-25.001249 0.23383,-0.27912 1.09077,-1.587491 1.90431,-2.907491 9.75318,-15.824937 23.30116,-19.142086 38.1547,-9.341969 17.60427,11.615005 5.88418,26.877747 -30.88,40.214152 -10.4297,3.78343 -14.458669,4.695312 -14.88,3.367814 z M 55.309158,45.848714 C 37.988042,15.213714 41.832726,0.28514344 65.754541,5.2902387 78.265232,7.9078161 85.199334,17.648397 85.091965,32.454212 c -0.04514,6.225193 -0.20392,6.918064 -1.704026,7.436019 -1.581456,0.546045 -1.487017,0.811542 -1.102313,-3.098934 C 84.064112,18.713267 75.74687,8.0299108 59.2,7.1382078 43.76337,6.3063352 43.371456,19.75444 58.089821,45.23296 c 1.956198,3.386317 1.969686,3.763075 0.150179,4.194694 -0.74175,0.175959 -0.955152,-0.08463 -2.930842,-3.57894 z"
         id="path308" />
    </g>
  </g>
</svg>
